#!OML:ASF H:\Dans Jumps\Project 1\Capture day 1\Session 1\subject.ASF
:FULLY-SPECIFIED
:DEGREES
94
root 0.265042 17.4625 -14.3697 8.84878 -0.573884 -1.47399
lowerback 3.59402 -0.17833 -0.285267
upperback 6.70797 -0.309303 1.82871
thorax 4.93397 -0.221825 2.05165
lowerneck -11.9483 0.582872 -1.2223
upperneck 33.8918 1.10986 0.146671
head 13.3794 0.344389 0.435032
rclavicle 5.76476e-015 -1.37161e-014
rhumerus -31.4795 -9.55904 -79.6206
rradius 36.5013
rwrist 18.8067
rhand -20.798 -27.3637
rfingers 7.12502
rthumb 5.56934 -57.2705
lclavicle 5.76476e-015 -1.37161e-014
lhumerus -27.6391 -2.89905 87.1068
lradius 28.471
lwrist 15.0541
lhand -26.8752 -4.62346
lfingers 7.12502
lthumb -0.299527 25.3561
rfemur -22.6636 -2.94328 19.9214
rtibia 28.9364
rfoot -13.8191 -3.95157
rtoes 8.09969
lfemur -21.7601 7.32262 -18.9787
ltibia 26.839
lfoot -11.8466 4.73776
ltoes 4.34362
95
root 0.266618 17.457 -14.3735 8.84285 -0.584861 -1.48101
lowerback 3.66936 -0.184342 -0.293603
upperback 6.73089 -0.317452 1.83642
thorax 4.91605 -0.226586 2.06452
lowerneck -11.945 0.593387 -1.21265
upperneck 33.8144 1.12961 0.123074
head 13.345 0.351624 0.426457
rclavicle -4.96962e-016 1.45113e-014
rhumerus -31.5596 -9.65208 -79.4892
rradius 36.4183
rwrist 18.8564
rhand -20.7176 -27.2808
rfingers 7.12502
rthumb 5.64696 -57.1856
lclavicle -4.96962e-016 1.45113e-014
lhumerus -27.7302 -2.84225 87.0655
lradius 28.4238
lwrist 15.1966
lhand -26.9796 -4.78858
lfingers 7.12502
lthumb -0.40035 25.1908
rfemur -22.7592 -2.92975 19.9247
rtibia 29.0973
rfoot -13.8659 -3.97617
rtoes 7.99883
lfemur -21.8625 7.34506 -18.9816
ltibia 27.019
lfoot -11.9102 4.74727
ltoes 4.29504
96
root 0.26822 17.4512 -14.3775 8.83751 -0.598033 -1.48709
lowerback 3.7478 -0.188916 -0.303343
upperback 6.75757 -0.323689 1.84288
thorax 4.90031 -0.230466 2.07693
lowerneck -11.9498 0.602575 -1.20015
upperneck 33.7339 1.14631 0.100748
head 13.3113 0.35807 0.41748
rclavicle 1.98785e-015 4.57205e-015
rhumerus -31.6491 -9.76044 -79.347
rradius 36.3291
rwrist 18.9312
rhand -20.6403 -27.1886
rfingers 7.12502
rthumb 5.72163 -57.0913
lclavicle 1.98785e-015 4.57205e-015
lhumerus -27.8249 -2.784 87.019
lradius 28.3704
lwrist 15.3443
lhand -27.0678 -4.91652
lfingers 7.12502
lthumb -0.485585 25.0627
rfemur -22.8605 -2.91251 19.9265
rtibia 29.2653
rfoot -13.9153 -4.0021
rtoes 7.90577
lfemur -21.9692 7.36732 -18.9859
ltibia 27.204
lfoot -11.9753 4.76041
ltoes 4.24732
97
root 0.269813 17.4453 -14.382 8.83408 -0.610909 -1.49309
lowerback 3.82951 -0.193093 -0.31484
upperback 6.78645 -0.329448 1.84998
thorax 4.88506 -0.234233 2.09102
lowerneck -11.9579 0.612236 -1.18688
upperneck 33.6488 1.16314 0.0794029
head 13.2763 0.364836 0.408785
rclavicle -9.93923e-016 -1.78906e-014
rhumerus -31.7466 -9.88684 -79.1923
rradius 36.2287
rwrist 19.0302
rhand -20.5764 -27.0852
rfingers 7.12502
rthumb 5.78336 -56.9863
lclavicle -9.93923e-016 -1.78906e-014
lhumerus -27.9286 -2.7353 86.9725
lradius 28.3157
lwrist 15.5137
lhand -27.1418 -5.00309
lfingers 7.12502
lthumb -0.557059 24.9759
rfemur -22.969 -2.8937 19.9284
rtibia 29.4398
rfoot -13.9659 -4.02959
rtoes 7.82312
lfemur -22.0827 7.387 -18.9903
ltibia 27.394
lfoot -12.0398 4.77737
ltoes 4.19703
98
root 0.271509 17.4391 -14.3867 8.83203 -0.628025 -1.49881
lowerback 3.91323 -0.195239 -0.326358
upperback 6.81745 -0.332515 1.85633
thorax 4.87083 -0.236662 2.10439
lowerneck -11.9691 0.622811 -1.17072
upperneck 33.5631 1.18069 0.0576954
head 13.2418 0.372236 0.399576
rclavicle -8.94531e-016 -2.98177e-015
rhumerus -31.8567 -10.031 -79.0257
rradius 36.1214
rwrist 19.146
rhand -20.5311 -26.9935
rfingers 7.12502
rthumb 5.8271 -56.8933
lclavicle -8.94531e-016 -2.98177e-015
lhumerus -28.051 -2.68309 86.9229
lradius 28.2699
lwrist 15.6851
lhand -27.2649 -5.13986
lfingers 7.12502
lthumb -0.675984 24.8388
rfemur -23.0837 -2.87503 19.9296
rtibia 29.62
rfoot -14.0177 -4.05319
rtoes 7.74507
lfemur -22.2009 7.40716 -18.9961
ltibia 27.5899
lfoot -12.1064 4.79986
ltoes 4.14654
99
root 0.273314 17.4328 -14.3916 8.83276 -0.64743 -1.50477
lowerback 3.99718 -0.196183 -0.336526
upperback 6.85077 -0.334006 1.86224
thorax 4.85888 -0.23826 2.11657
lowerneck -11.9874 0.633384 -1.15505
upperneck 33.4795 1.19848 0.0360457
head 13.2099 0.379659 0.390581
rclavicle 6.85807e-015 1.39149e-015
rhumerus -31.9813 -10.1867 -78.8487
rradius 36.0144
rwrist 19.2583
rhand -20.4975 -26.9196
rfingers 7.12502
rthumb 5.85955 -56.8186
lclavicle 6.85807e-015 1.39149e-015
lhumerus -28.1913 -2.63884 86.8733
lradius 28.2313
lwrist 15.8899
lhand -27.411 -5.26343
lfingers 7.12502
lthumb -0.817075 24.7148
rfemur -23.2052 -2.85854 19.931
rtibia 29.8052
rfoot -14.0707 -4.07263
rtoes 7.66087
lfemur -22.3253 7.42699 -19.0025
ltibia 27.7922
lfoot -12.1755 4.82629
ltoes 4.10305
100
root 0.275297 17.4262 -14.3968 8.8361 -0.67013 -1.51018
lowerback 4.08468 -0.195914 -0.345646
upperback 6.88443 -0.333854 1.86764
thorax 4.8452 -0.238969 2.12765
lowerneck -12.0123 0.643032 -1.13895
upperneck 33.4021 1.21559 0.0124767
head 13.1822 0.386532 0.380748
rclavicle -1.59028e-015 6.75868e-015
rhumerus -32.1273 -10.3492 -78.6599
rradius 35.9109
rwrist 19.3558
rhand -20.4735 -26.8609
rfingers 7.12502
rthumb 5.88271 -56.7593
lclavicle -1.59028e-015 6.75868e-015
lhumerus -28.3496 -2.60379 86.825
lradius 28.1959
lwrist 16.127
lhand -27.5625 -5.40064
lfingers 7.12502
lthumb -0.963404 24.5769
rfemur -23.3333 -2.84787 19.9319
rtibia 29.9949
rfoot -14.1264 -4.08477
rtoes 7.56949
lfemur -22.4566 7.44787 -19.011
ltibia 28.0021
lfoot -12.2464 4.856
ltoes 4.0595
101
root 0.277543 17.4194 -14.4021 8.84453 -0.694645 -1.51428
lowerback 4.17258 -0.194312 -0.351098
upperback 6.91796 -0.33183 1.87087
thorax 4.83106 -0.238499 2.13442
lowerneck -12.038 0.652859 -1.12018
upperneck 33.3261 1.23331 -0.0141261
head 13.1554 0.393608 0.369379
rclavicle 1.19271e-015 2.98177e-015
rhumerus -32.2956 -10.5236 -78.4562
rradius 35.8025
rwrist 19.4364
rhand -20.4623 -26.8061
rfingers 7.12502
rthumb 5.89353 -56.7041
lclavicle 1.19271e-015 2.98177e-015
lhumerus -28.5301 -2.57772 86.7764
lradius 28.163
lwrist 16.3939
lhand -27.7336 -5.57794
lfingers 7.12502
lthumb -1.12866 24.3988
rfemur -23.4702 -2.84532 19.9315
rtibia 30.1896
rfoot -14.1863 -4.08819
rtoes 7.47699
lfemur -22.5971 7.46915 -19.0229
ltibia 28.2196
lfoot -12.3203 4.88756
ltoes 4.01766
102
root 0.279965 17.4125 -14.4077 8.85869 -0.721722 -1.51951
lowerback 4.26004 -0.19136 -0.352182
upperback 6.95179 -0.327948 1.87304
thorax 4.81738 -0.236863 2.13764
lowerneck -12.0641 0.662084 -1.10133
upperneck 33.2485 1.2499 -0.0401222
head 13.128 0.400296 0.358084
rclavicle 7.05686e-015 -1.0138e-014
rhumerus -32.486 -10.7125 -78.2349
rradius 35.6877
rwrist 19.4989
rhand -20.4519 -26.7283
rfingers 7.12502
rthumb 5.90353 -56.6261
lclavicle 7.05686e-015 -1.0138e-014
lhumerus -28.7261 -2.56819 86.728
lradius 28.1241
lwrist 16.7015
lhand -27.9306 -5.79326
lfingers 7.12502
lthumb -1.31886 24.1824
rfemur -23.6173 -2.84601 19.9325
rtibia 30.3897
rfoot -14.2509 -4.08699
rtoes 7.38434
lfemur -22.7493 7.49236 -19.0353
ltibia 28.4457
lfoot -12.3982 4.91902
ltoes 3.98643
